<svg id="Layer_1" data-name="Layer 1" xmlns="http://www.w3.org/2000/svg" viewBox="0 0 787.56 215.11"><defs><style>.cls-1{fill:none;stroke:#fff;stroke-miterlimit:10;stroke-width:10px;}.cls-2{fill:#fff;}</style></defs><title>Grubbrr Logo 2019</title><rect class="cls-1" x="18.88" y="14.47" width="746.16" height="179.96"/><path class="cls-2" d="M102.24,57.37a54.42,54.42,0,0,1,28.48,7.7V78.92A45.54,45.54,0,0,0,102,68.66c-21.8,0-36.56,16.16-36.56,36.56,0,19.75,13.86,36.81,37,36.81a41.5,41.5,0,0,0,19-4.36V116H100.57V105.34h33V143.7c-8.21,5.64-20.27,9.36-32.19,9.36-27.46,0-48.11-20-48.11-47.59C53.24,78.15,73.38,57.37,102.24,57.37Z"/><path class="cls-2" d="M156.76,58.78H181.9c9.37,0,18.34.38,25.92,4.62s12.82,11.41,12.82,21.68c0,10-4.87,17.57-11.93,21.8a28.55,28.55,0,0,1-10.65,3.85l29.77,40.92H213.07l-28.35-39.76H169v39.76H156.76Zm28,43.1c8.21,0,14-1,18.22-4.23a13.69,13.69,0,0,0,5.51-11.55,14.35,14.35,0,0,0-7.56-13.21c-5-2.69-10.91-3.08-19.89-3.08H169v32.07Z"/><path class="cls-2" d="M242.7,107.91V58.78h12.19v47.85c0,11.41.77,18.6,3.59,24,3.21,6,9.88,11.16,22.06,11.16,11.29,0,18.22-4.37,21.81-11.16,2.95-5.52,3.46-13,3.46-23.48V58.78h11.81V106.5c0,13.47-.77,23.86-6.16,32.07-5.9,9-17.06,14.49-31.43,14.49s-25.4-5.64-31.17-14.49C243.47,130.23,242.7,119.46,242.7,107.91Z"/><path class="cls-2" d="M341.48,58.78h24.88c11.29,0,18.47,1,24.76,4.87,7.06,4.24,10.91,10.65,10.91,19,0,10.65-6.42,16.93-14.11,19.62v.26c10.9,2.57,17.82,9.75,17.82,21.68,0,8.85-3.84,16.55-10.64,21.29-6.54,4.62-15.52,6.16-29,6.16H341.48ZM372,99.31c9.36,0,17.83-4.36,17.83-14.49A12.94,12.94,0,0,0,383.29,73c-4.36-2.57-9.36-3.21-18.6-3.21h-11v29.5Zm-5.14,41.31c10.53,0,16.42-1,20.66-4a14.28,14.28,0,0,0,6-12.19c0-10.26-8.08-15.78-21.94-15.78H353.67v31.94Z"/><path class="cls-2" d="M426.91,58.78H451.8c11.28,0,18.47,1,24.76,4.87,7.05,4.24,10.9,10.65,10.9,19,0,10.65-6.42,16.93-14.11,19.62v.26c10.9,2.57,17.83,9.75,17.83,21.68,0,8.85-3.85,16.55-10.65,21.29-6.54,4.62-15.52,6.16-29,6.16H426.91Zm30.53,40.53c9.36,0,17.83-4.36,17.83-14.49A12.93,12.93,0,0,0,468.73,73c-4.36-2.57-9.37-3.21-18.6-3.21h-11v29.5Zm-5.13,41.31c10.52,0,16.42-1,20.65-4a14.28,14.28,0,0,0,6-12.19c0-10.26-8.08-15.78-21.94-15.78H439.1v31.94Z"/><path class="cls-2" d="M512.34,58.78h25.14c9.37,0,18.34.38,25.92,4.62s12.82,11.41,12.82,21.68c0,10-4.87,17.57-11.93,21.8a28.55,28.55,0,0,1-10.65,3.85l29.77,40.92H568.65L540.3,111.89H524.53v39.76H512.34Zm28,43.1c8.21,0,14-1,18.22-4.23A13.69,13.69,0,0,0,564,86.1a14.35,14.35,0,0,0-7.56-13.21c-5-2.69-10.91-3.08-19.89-3.08H524.53v32.07Z"/><path class="cls-2" d="M599.31,58.78h25.15c9.36,0,18.34.38,25.91,4.62S663.2,74.81,663.2,85.08c0,10-4.88,17.57-11.93,21.8a28.62,28.62,0,0,1-10.65,3.85l29.76,40.92H655.63l-28.35-39.76H611.5v39.76H599.31Zm28,43.1c8.21,0,14-1,18.21-4.23A13.67,13.67,0,0,0,651,86.1a14.36,14.36,0,0,0-7.57-13.21c-5-2.69-10.9-3.08-19.89-3.08h-12v32.07Z"/><path class="cls-2" d="M687,64.61h-8.74V59.85h22.66v4.76h-8.75v24H687ZM715,75c-1.59-2.29-3.18-4.57-4.57-6.66l-.19.1c.09,2.09.19,4.87.19,7.35V88.66H705.4V59.85h4.88l9.33,12.91L729,59.85h5V88.66h-5.16V75.74c0-2.48.09-5.26.19-7.35l-.19-.1c-1.4,2.09-3,4.37-4.58,6.66l-4.57,6.36Z"/></svg>